<?xml version="1.0" encoding="utf-8"?>
<!-- Generator: Adobe Illustrator 22.1.0, SVG Export Plug-In . SVG Version: 6.00 Build 0)  -->
<svg version="1.1" id="Слой_1" xmlns="http://www.w3.org/2000/svg" xmlns:xlink="http://www.w3.org/1999/xlink" x="0px" y="0px"
	 viewBox="0 0 60 62" style="enable-background:new 0 0 60 62;" xml:space="preserve">
<style type="text/css">
	.st0{fill:none;stroke:#FFFFFF;stroke-width:2;stroke-linecap:round;stroke-linejoin:round;stroke-miterlimit:10;}
</style>
<image style="overflow:visible;" width="1000" height="898" xlink:href="88776540.jpg"  transform="matrix(1 0 0 1 -2592 -983.5512)">
</image>
<circle class="st0" cx="-31.2" cy="290.5" r="22.8"/>
<line class="st0" x1="-8.3" y1="314.9" x2="-15.1" y2="308.2"/>
<line class="st0" x1="-4.9" y1="318.3" x2="-5.9" y2="317.4"/>
<path class="st0" d="M-39.1,291.3c0,0-1.2,4.3,7.8,10.7c9.9,7,7,9.7,7,9.7"/>
<path class="st0" d="M-33.3,303.9c-6.8,6.1-4.7,7.8-4.7,7.8"/>
<path class="st0" d="M-31,302c6.5-4.3,7.8-7.4,7.9-10.7c0.2-5.2-3.1-8.2-9.7-12.7c-7.2-4.9-6.1-8.1-6.1-8.1"/>
<line class="st0" x1="-33.6" y1="295.6" x2="-24.8" y2="295.6"/>
<line class="st0" x1="-33.6" y1="286.5" x2="-25.6" y2="286.5"/>
<line class="st0" x1="-30.5" y1="308.2" x2="-36.9" y2="308.2"/>
<path class="st0" d="M-33.3,281.3c-6.7,6.1-5.7,10.4-5.7,10.4"/>
<path class="st0" d="M-23.3,269.9c0,0-0.2,3.9-7.7,9.6"/>
<line class="st0" x1="-33.6" y1="273.5" x2="-25.6" y2="273.5"/>
<line class="st0" x1="-28.4" y1="291.7" x2="-38.6" y2="291.7"/>
<path class="st0" d="M50,299.7c2.6,2.1,3.4,4.7,4.3,7.3c0.9,2.6,1.3,4.7-6,7.3c-7.3,2.5-24,1.6-29.9,0.7c-5.9-0.9-9.8-2.6-9.4-6
	c0.4-3.4,1.7-5.1,4.3-8.5c2.6-3.4,10.3-5.4,18.7-5.4S47.4,297.5,50,299.7z"/>
<path class="st0" d="M26.1,295.8c0,0-1.8,0.2-3,1.7c-1.3,1.7-0.9,3.4-0.9,3.4"/>
<path class="st0" d="M41.3,300c-0.2-0.6-0.6-1.5-1.3-2.4c-1.1-1.5-3-1.7-3-1.7"/>
<path class="st0" d="M19.6,310.4c0,0-1.1,0-1.4,0s-1.4-1.4-1.1-3.2c0.4-1.8,2.1-5.3,5-5.3s3.6,3.9,3.6,5.7c0,1.8-0.4,2.8-1.1,2.8
	s-1.4,0-1.4,0"/>
<circle class="st0" cx="42.2" cy="302.4" r="2.3"/>
<line class="st0" x1="37.1" y1="305.7" x2="37.1" y2="311.6"/>
<line class="st0" x1="34.2" y1="308.6" x2="40" y2="308.6"/>
<path class="st0" d="M43.8,280.1c-0.6,0.6-2.2,1.1-2.2,1.1s-5.4,1.1-14.1-4.3c-2.1-1.3-4.3-4.3-4.3-4.3s-2.6,3.2-3.8,6"/>
<path class="st0" d="M73.1,302.1c0-14.6,10.8-26.4,25.4-26.4s25.4,11.8,25.4,26.4"/>
<path class="st0" d="M96.8,272.3v-1.7c0-1.5,0.2-2.7,1.7-2.7s1.7,1.2,1.7,2.7v1.7"/>
<path class="st0" d="M82.1,294.9c1-6.6,5.8-12,12.1-14"/>
<line class="st0" x1="123.2" y1="302.1" x2="74" y2="302.1"/>
<line class="st0" x1="126.6" y1="307.5" x2="69" y2="307.5"/>
<polyline class="st0" points="73.7,309.2 77.1,313.9 119.1,313.9 122.5,308.5 "/>
<path class="st0" d="M19.4,278.5c0-9.2,3.3-14.6,12.5-14.6s12.5,6.2,12.5,14.6c0,9.2-7.3,16.6-12.5,16.6S19.4,287.7,19.4,278.5z"/>
<line class="st0" x1="33.9" y1="163.7" x2="26.7" y2="151.8"/>
<line class="st0" x1="20.2" y1="166.5" x2="6.4" y2="164.5"/>
<line class="st0" x1="13.6" y1="178.9" x2="3.2" y2="188.2"/>
<line class="st0" x1="18.9" y1="191.8" x2="19.5" y2="205.7"/>
<line class="st0" x1="32.3" y1="196" x2="43.4" y2="204.4"/>
<line class="st0" x1="44" y1="188.3" x2="57.5" y2="185.1"/>
<line class="st0" x1="45.6" y1="174.4" x2="51.7" y2="161.9"/>
<circle class="st0" cx="30" cy="179.7" r="16.5"/>
<circle class="st0" cx="30" cy="179.7" r="28.3"/>
<circle class="st0" cx="30" cy="179.7" r="6.7"/>
<line class="st0" x1="40.3" y1="182.6" x2="42.5" y2="184.2"/>
<line class="st0" x1="40.3" y1="179" x2="42.5" y2="180.7"/>
<line class="st0" x1="40.3" y1="175.6" x2="42.5" y2="177.2"/>
<line class="st0" x1="17.8" y1="182.6" x2="20" y2="184.2"/>
<line class="st0" x1="17.8" y1="179" x2="20" y2="180.7"/>
<line class="st0" x1="17.8" y1="175.6" x2="20" y2="177.2"/>
<line class="st0" x1="32.8" y1="169.8" x2="34.5" y2="167.6"/>
<line class="st0" x1="29.3" y1="169.8" x2="30.9" y2="167.6"/>
<line class="st0" x1="25.8" y1="169.8" x2="27.5" y2="167.6"/>
<line class="st0" x1="32.8" y1="192.2" x2="34.5" y2="190"/>
<line class="st0" x1="29.3" y1="192.2" x2="30.9" y2="190"/>
<line class="st0" x1="25.8" y1="192.2" x2="27.5" y2="190"/>
<path class="st0" d="M-82.4,73.7c5.9,5.2,9.7,12.9,9.7,21.4c0,15.7-12.7,28.4-28.4,28.4s-28.4-12.7-28.4-28.4c0-8.4,3.7-16,9.5-21.2
	"/>
<circle class="st0" cx="-101.1" cy="95.1" r="13"/>
<circle class="st0" cx="-121.7" cy="95.8" r="2"/>
<circle class="st0" cx="-80.8" cy="95.8" r="2"/>
<circle class="st0" cx="-115.7" cy="110.3" r="2"/>
<circle class="st0" cx="-86.8" cy="81.4" r="2"/>
<circle class="st0" cx="-101.2" cy="116.3" r="2"/>
<circle class="st0" cx="-86.8" cy="110.3" r="2"/>
<circle class="st0" cx="-115.7" cy="81.4" r="2"/>
<path class="st0" d="M-101.1,64.2c-8.1,0-15.4,3.1-20.6,8.2l10.9,10.3c2.1-1.9,5.8-3.7,9.7-3.7c3.7,0,7.3,1.5,9.5,3.5l10.9-10.3
	C-85.9,67.2-93.1,64.2-101.1,64.2z"/>
<g>
	<polyline class="st0" points="-199.8,-48.7 -202,-48.3 -194.5,-40.8 -190.5,-50.6 -195.7,-49.5 	"/>
	<path class="st0" d="M-205.6-26c-3.8,2.7-8.5,4.4-13.6,4.4c-13,0-23.5-10.5-23.5-23.5s10.5-23.5,23.5-23.5c11.4,0,20.8,8.1,23,18.8
		"/>
	<path class="st0" d="M-219.3-26.6c-10.3,0-18.6-8.3-18.6-18.6"/>
	<path class="st0" d="M-202.1-28.8c-0.3,0.3-0.7,0.7-1,1"/>
	<path class="st0" d="M-196.9-37.1c-0.8,2.3-2,4.4-3.5,6.3"/>
	<circle class="st0" cx="-219.5" cy="-45.2" r="2.9"/>
	<line class="st0" x1="-219.5" y1="-56.3" x2="-219.5" y2="-48.1"/>
	<line class="st0" x1="-211.4" y1="-38.3" x2="-217.1" y2="-43.2"/>
</g>
<path class="st0" d="M51.3,47.6c-0.8-2.4-1.6-4.8-4-6.8c-2.3-1.9-8.8-3.9-16.3-4v0c-0.1,0-0.2,0-0.3,0c-0.1,0-0.2,0-0.3,0v0
	c-7.5,0.1-13.9,2-16.3,4c-2.4,2-3.2,4.4-4,6.8C9.3,50,8.9,52,15.7,54.4c3.5,1.2,9.4,1.6,15,1.6c5.6,0,11.5-0.4,15-1.6
	C52.5,52,52.1,50,51.3,47.6z"/>
<path class="st0" d="M36.5,33.6c-2,2-4.1,2.9-6.1,2.9c-4.9,0-11.7-7-11.7-15.6"/>
<path class="st0" d="M42.1,21c0,3.2-1,6.3-2.4,8.8"/>
<path class="st0" d="M18.4,21.1c0,0,0.4-1.7,1.7-3.4s3.4-2.4,3.4-2.4s3.6,2.7,8.6,3.2c5,0.5,8-0.7,8-0.7l2.4,3.8
	c0,0,1.2-3.9,0.8-8.7C42.9,8.2,42.5,6,42.5,6s-4.3,0.2-7.9-0.5s-6-1.4-8.4-0.5s-2.3,2.1-2.3,2.1s-4.8-1.4-6.1,3.5
	C16.6,15.6,18.4,21.1,18.4,21.1z"/>
<polyline class="st0" points="18.7,38.6 30.7,51.1 43,39 "/>
<polyline class="st0" points="27.8,37.3 29.4,40.6 27.4,47.4 "/>
<polyline class="st0" points="34,37.3 32.4,40.5 34.4,47.4 "/>
<path class="st0" d="M42.1,22.6c0,0,0,5.2,0,7.1s-0.7,2.8-1.8,2.8c-1,0-2.1,0-2.1,0"/>
<path class="st0" d="M37.2,33.6h-2.9c-0.5,0-0.8-0.4-0.8-0.8V32c0-0.5,0.4-0.8,0.8-0.8h2.9c0.5,0,0.8,0.4,0.8,0.8v0.7
	C38,33.2,37.6,33.6,37.2,33.6z"/>
</svg>
