<?xml version="1.0" encoding="utf-8"?>
<!-- Generator: Adobe Illustrator 22.1.0, SVG Export Plug-In . SVG Version: 6.00 Build 0)  -->
<svg version="1.1" id="Слой_1" xmlns="http://www.w3.org/2000/svg" xmlns:xlink="http://www.w3.org/1999/xlink" x="0px" y="0px"
	 viewBox="0 0 60 62" style="enable-background:new 0 0 60 62;" xml:space="preserve">
<style type="text/css">
	.st0{fill:none;stroke:#FFFFFF;stroke-width:2;stroke-linecap:round;stroke-linejoin:round;stroke-miterlimit:10;}
</style>
<image style="overflow:visible;" width="1000" height="898" xlink:href="F48A7854.jpg"  transform="matrix(1 0 0 1 -2592 -983.5512)">
</image>
<circle class="st0" cx="-31.2" cy="290.5" r="22.8"/>
<line class="st0" x1="-8.3" y1="314.9" x2="-15.1" y2="308.2"/>
<line class="st0" x1="-4.9" y1="318.3" x2="-5.9" y2="317.4"/>
<path class="st0" d="M-39.1,291.3c0,0-1.2,4.3,7.8,10.7c9.9,7,7,9.7,7,9.7"/>
<path class="st0" d="M-33.3,303.9c-6.8,6.1-4.7,7.8-4.7,7.8"/>
<path class="st0" d="M-31,302c6.5-4.3,7.8-7.4,7.9-10.7c0.2-5.2-3.1-8.2-9.7-12.7c-7.2-4.9-6.1-8.1-6.1-8.1"/>
<line class="st0" x1="-33.6" y1="295.6" x2="-24.8" y2="295.6"/>
<line class="st0" x1="-33.6" y1="286.5" x2="-25.6" y2="286.5"/>
<line class="st0" x1="-30.5" y1="308.2" x2="-36.9" y2="308.2"/>
<path class="st0" d="M-33.3,281.3c-6.7,6.1-5.7,10.4-5.7,10.4"/>
<path class="st0" d="M-23.3,269.9c0,0-0.2,3.9-7.7,9.6"/>
<line class="st0" x1="-33.6" y1="273.5" x2="-25.6" y2="273.5"/>
<line class="st0" x1="-28.4" y1="291.7" x2="-38.6" y2="291.7"/>
<path class="st0" d="M50,299.7c2.6,2.1,3.4,4.7,4.3,7.3c0.9,2.6,1.3,4.7-6,7.3c-7.3,2.5-24,1.6-29.9,0.7c-5.9-0.9-9.8-2.6-9.4-6
	c0.4-3.4,1.7-5.1,4.3-8.5c2.6-3.4,10.3-5.4,18.7-5.4S47.4,297.5,50,299.7z"/>
<path class="st0" d="M26.1,295.8c0,0-1.8,0.2-3,1.7c-1.3,1.7-0.9,3.4-0.9,3.4"/>
<path class="st0" d="M41.3,300c-0.2-0.6-0.6-1.5-1.3-2.4c-1.1-1.5-3-1.7-3-1.7"/>
<path class="st0" d="M19.6,310.4c0,0-1.1,0-1.4,0s-1.4-1.4-1.1-3.2c0.4-1.8,2.1-5.3,5-5.3s3.6,3.9,3.6,5.7c0,1.8-0.4,2.8-1.1,2.8
	s-1.4,0-1.4,0"/>
<circle class="st0" cx="42.2" cy="302.4" r="2.3"/>
<line class="st0" x1="37.1" y1="305.7" x2="37.1" y2="311.6"/>
<line class="st0" x1="34.2" y1="308.6" x2="40" y2="308.6"/>
<path class="st0" d="M43.8,280.1c-0.6,0.6-2.2,1.1-2.2,1.1s-5.4,1.1-14.1-4.3c-2.1-1.3-4.3-4.3-4.3-4.3s-2.6,3.2-3.8,6"/>
<path class="st0" d="M73.1,302.1c0-14.6,10.8-26.4,25.4-26.4s25.4,11.8,25.4,26.4"/>
<path class="st0" d="M96.8,272.3v-1.7c0-1.5,0.2-2.7,1.7-2.7s1.7,1.2,1.7,2.7v1.7"/>
<path class="st0" d="M82.1,294.9c1-6.6,5.8-12,12.1-14"/>
<line class="st0" x1="123.2" y1="302.1" x2="74" y2="302.1"/>
<line class="st0" x1="126.6" y1="307.5" x2="69" y2="307.5"/>
<polyline class="st0" points="73.7,309.2 77.1,313.9 119.1,313.9 122.5,308.5 "/>
<path class="st0" d="M19.4,278.5c0-9.2,3.3-14.6,12.5-14.6s12.5,6.2,12.5,14.6c0,9.2-7.3,16.6-12.5,16.6S19.4,287.7,19.4,278.5z"/>
<line class="st0" x1="33.9" y1="163.7" x2="26.7" y2="151.8"/>
<line class="st0" x1="20.2" y1="166.5" x2="6.4" y2="164.5"/>
<line class="st0" x1="13.6" y1="178.9" x2="3.2" y2="188.2"/>
<line class="st0" x1="18.9" y1="191.8" x2="19.5" y2="205.7"/>
<line class="st0" x1="32.3" y1="196" x2="43.4" y2="204.4"/>
<line class="st0" x1="44" y1="188.3" x2="57.5" y2="185.1"/>
<line class="st0" x1="45.6" y1="174.4" x2="51.7" y2="161.9"/>
<circle class="st0" cx="30" cy="179.7" r="16.5"/>
<circle class="st0" cx="30" cy="179.7" r="28.3"/>
<circle class="st0" cx="30" cy="179.7" r="6.7"/>
<line class="st0" x1="40.3" y1="182.6" x2="42.5" y2="184.2"/>
<line class="st0" x1="40.3" y1="179" x2="42.5" y2="180.7"/>
<line class="st0" x1="40.3" y1="175.6" x2="42.5" y2="177.2"/>
<line class="st0" x1="17.8" y1="182.6" x2="20" y2="184.2"/>
<line class="st0" x1="17.8" y1="179" x2="20" y2="180.7"/>
<line class="st0" x1="17.8" y1="175.6" x2="20" y2="177.2"/>
<line class="st0" x1="32.8" y1="169.8" x2="34.5" y2="167.6"/>
<line class="st0" x1="29.3" y1="169.8" x2="30.9" y2="167.6"/>
<line class="st0" x1="25.8" y1="169.8" x2="27.5" y2="167.6"/>
<line class="st0" x1="32.8" y1="192.2" x2="34.5" y2="190"/>
<line class="st0" x1="29.3" y1="192.2" x2="30.9" y2="190"/>
<line class="st0" x1="25.8" y1="192.2" x2="27.5" y2="190"/>
<path class="st0" d="M48.7,10.9c5.9,5.2,9.7,12.9,9.7,21.4c0,15.7-12.7,28.4-28.4,28.4S1.6,47.9,1.6,32.2c0-8.4,3.7-16,9.5-21.2"/>
<circle class="st0" cx="30" cy="32.2" r="13"/>
<circle class="st0" cx="9.4" cy="33" r="2"/>
<circle class="st0" cx="50.3" cy="33" r="2"/>
<circle class="st0" cx="15.3" cy="47.5" r="2"/>
<circle class="st0" cx="44.3" cy="18.5" r="2"/>
<circle class="st0" cx="29.8" cy="53.5" r="2"/>
<circle class="st0" cx="44.3" cy="47.5" r="2"/>
<circle class="st0" cx="15.3" cy="18.5" r="2"/>
<path class="st0" d="M30,1.4c-8.1,0-15.4,3.1-20.6,8.2l10.9,10.3c2.1-1.9,5.8-3.7,9.7-3.7c3.7,0,7.3,1.5,9.5,3.5L50.3,9.4
	C45.2,4.4,38,1.4,30,1.4z"/>
</svg>
