<?xml version="1.0" encoding="utf-8"?>
<!-- Generator: Adobe Illustrator 22.1.0, SVG Export Plug-In . SVG Version: 6.00 Build 0)  -->
<svg version="1.1" id="Слой_1" xmlns="http://www.w3.org/2000/svg" xmlns:xlink="http://www.w3.org/1999/xlink" x="0px" y="0px"
	 viewBox="0 0 102.3 98.1" style="enable-background:new 0 0 102.3 98.1;" xml:space="preserve">
<style type="text/css">
	.st0{fill:none;stroke:#FFFFFF;stroke-width:4;stroke-miterlimit:10;}
</style>
<path class="st0" d="M52.5,2.7c25.4,0,46.1,20.7,46.1,46.1S77.9,94.9,52.5,94.9S6.4,74.3,6.4,48.8S27,2.7,52.5,2.7z"/>
<path class="st0" d="M52.5,2.7c25.4,0,46.1,20.7,46.1,46.1S77.9,94.9,52.5,94.9S6.4,74.3,6.4,48.8S27,2.7,52.5,2.7z"/>
<path class="st0" d="M52.5,41.9c3.8,0,6.9,3.1,6.9,6.9c0,3.8-3.1,6.9-6.9,6.9c-3.8,0-6.9-3.1-6.9-6.9S48.7,41.9,52.5,41.9z"/>
<path class="st0" d="M6.5,42.9c0,0,10.1-11.2,47.3-11.2s44.6,11.2,44.6,11.2"/>
<path class="st0" d="M27.4,86.4c0,0,8.8-12.9,25.1-12.9s24.7,12.9,24.7,12.9"/>
<path class="st0" d="M8.3,53.6c0,0,8.9-2,17.5,0s-7.4,22.9-7.4,22.9"/>
<path class="st0" d="M97.2,53.6c0,0-8.9-2-17.5,0s7.4,22.9,7.4,22.9"/>
</svg>
